<?xml version="1.0" encoding="UTF-8" standalone="no"?>
<!DOCTYPE svg PUBLIC "-//W3C//DTD SVG 1.1//EN"
 "http://www.w3.org/Graphics/SVG/1.1/DTD/svg11.dtd">
<!-- Generated by graphviz version 2.44.1 (20200629.0846)
 -->
<!-- Title: dependencies Pages: 1 -->
<svg width="542pt" height="222pt"
 viewBox="0.00 0.00 542.00 222.00" xmlns="http://www.w3.org/2000/svg" xmlns:xlink="http://www.w3.org/1999/xlink">
<g id="graph0" class="graph" transform="scale(1 1) rotate(0) translate(4 218)">
<title>dependencies</title>
<polygon fill="white" stroke="transparent" points="-4,4 -4,-218 538,-218 538,4 -4,4"/>
<text text-anchor="start" x="246.01" y="-42.4" font-family="sans-serif" font-weight="bold" font-size="14.00">Legend</text>
<polygon fill="#ffffb3" stroke="transparent" points="33,-10 33,-30 53,-30 53,-10 33,-10"/>
<text text-anchor="start" x="56.63" y="-15.4" font-family="sans-serif" font-size="14.00"> &#160;Declarations</text>
<polygon fill="#8dd3c7" stroke="transparent" points="146,-10 146,-30 166,-30 166,-10 146,-10"/>
<text text-anchor="start" x="169.73" y="-15.4" font-family="sans-serif" font-size="14.00"> &#160;Module</text>
<polygon fill="#80b1d3" stroke="transparent" points="232,-10 232,-30 252,-30 252,-10 232,-10"/>
<text text-anchor="start" x="255.78" y="-15.4" font-family="sans-serif" font-size="14.00"> &#160;Bootstrap</text>
<polygon fill="#fdb462" stroke="transparent" points="329,-10 329,-30 349,-30 349,-10 329,-10"/>
<text text-anchor="start" x="352.67" y="-15.4" font-family="sans-serif" font-size="14.00"> &#160;Providers</text>
<polygon fill="#fb8072" stroke="transparent" points="425,-10 425,-30 445,-30 445,-10 425,-10"/>
<text text-anchor="start" x="448.73" y="-15.4" font-family="sans-serif" font-size="14.00"> &#160;Exports</text>
<g id="clust1" class="cluster">
<title>cluster_AppModule</title>
<polygon fill="none" stroke="black" stroke-dasharray="1,5" points="8,-70 8,-198 262,-198 262,-70 8,-70"/>
</g>
<g id="clust3" class="cluster">
<title>cluster_AppModule_imports</title>
<polygon fill="none" stroke="black" points="154,-78 154,-130 254,-130 254,-78 154,-78"/>
</g>
<g id="clust6" class="cluster">
<title>cluster_AppModule_providers</title>
<polygon fill="none" stroke="black" points="16,-78 16,-130 146,-130 146,-78 16,-78"/>
</g>
<g id="clust7" class="cluster">
<title>cluster_CatsModule</title>
<polygon fill="none" stroke="black" stroke-dasharray="1,5" points="270,-138 270,-206 526,-206 526,-138 270,-138"/>
</g>
<g id="clust10" class="cluster">
<title>cluster_CatsModule_exports</title>
<polygon fill="none" stroke="black" points="416,-146 416,-198 518,-198 518,-146 416,-146"/>
</g>
<g id="clust12" class="cluster">
<title>cluster_CatsModule_providers</title>
<polygon fill="none" stroke="black" points="278,-146 278,-198 408,-198 408,-146 278,-146"/>
</g>
<!-- CatsModule -->
<g id="node1" class="node">
<title>CatsModule</title>
<polygon fill="#8dd3c7" stroke="black" points="246.44,-122 243.44,-126 222.44,-126 219.44,-122 161.56,-122 161.56,-86 246.44,-86 246.44,-122"/>
<text text-anchor="middle" x="204" y="-99.8" font-family="Times,serif" font-size="14.00">CatsModule</text>
</g>
<!-- AppModule -->
<g id="node2" class="node">
<title>AppModule</title>
<polygon fill="#8dd3c7" stroke="black" points="183.66,-190 180.66,-194 159.66,-194 156.66,-190 100.34,-190 100.34,-154 183.66,-154 183.66,-190"/>
<text text-anchor="middle" x="142" y="-167.8" font-family="Times,serif" font-size="14.00">AppModule</text>
</g>
<!-- CatsModule&#45;&gt;AppModule -->
<g id="edge1" class="edge">
<title>CatsModule&#45;&gt;AppModule</title>
<path fill="none" stroke="black" d="M172.81,-122.22C172.81,-122.22 172.81,-143.73 172.81,-143.73"/>
<polygon fill="black" stroke="black" points="169.31,-143.73 172.81,-153.73 176.31,-143.73 169.31,-143.73"/>
</g>
<!-- CatsService  -->
<g id="node4" class="node">
<title>CatsService </title>
<polygon fill="#fb8072" stroke="black" points="510.36,-190 423.64,-190 423.64,-154 510.36,-154 510.36,-190"/>
<text text-anchor="middle" x="467" y="-167.8" font-family="Times,serif" font-size="14.00">CatsService </text>
</g>
<!-- CatsModule&#45;&gt;CatsService  -->
<g id="edge3" class="edge">
<title>CatsModule&#45;&gt;CatsService </title>
<path fill="none" stroke="black" stroke-dasharray="5,2" d="M246.26,-104C320.6,-104 467,-104 467,-104 467,-104 467,-143.78 467,-143.78"/>
<polygon fill="black" stroke="black" points="463.5,-143.78 467,-153.78 470.5,-143.78 463.5,-143.78"/>
</g>
<!-- AppService -->
<g id="node3" class="node">
<title>AppService</title>
<ellipse fill="#fdb462" stroke="black" cx="81" cy="-104" rx="56.74" ry="18"/>
<text text-anchor="middle" x="81" y="-99.8" font-family="Times,serif" font-size="14.00">AppService</text>
</g>
<!-- AppService&#45;&gt;AppModule -->
<g id="edge2" class="edge">
<title>AppService&#45;&gt;AppModule</title>
<path fill="none" stroke="black" d="M118.9,-117.43C118.9,-117.43 118.9,-143.96 118.9,-143.96"/>
<polygon fill="black" stroke="black" points="115.4,-143.96 118.9,-153.96 122.4,-143.96 115.4,-143.96"/>
</g>
<!-- CatsService -->
<g id="node5" class="node">
<title>CatsService</title>
<ellipse fill="#fdb462" stroke="black" cx="343" cy="-172" rx="57.32" ry="18"/>
<text text-anchor="middle" x="343" y="-167.8" font-family="Times,serif" font-size="14.00">CatsService</text>
</g>
<!-- CatsService&#45;&gt;CatsModule -->
<g id="edge4" class="edge">
<title>CatsService&#45;&gt;CatsModule</title>
<path fill="none" stroke="black" d="M285.75,-172C251.67,-172 215.02,-172 215.02,-172 215.02,-172 215.02,-132.22 215.02,-132.22"/>
<polygon fill="black" stroke="black" points="218.52,-132.22 215.02,-122.22 211.52,-132.22 218.52,-132.22"/>
</g>
</g>
</svg>
